<svg id="Capa_1" data-name="Capa 1" xmlns="http://www.w3.org/2000/svg" viewBox="0 0 234.03 27.56"><defs><style>.cls-1{fill:#fff;}</style></defs><title>logotype-coderdiaz-2018-white</title><path class="cls-1" d="M4,23.7a13.07,13.07,0,0,1-4-9.81,13.19,13.19,0,0,1,4-10A13.48,13.48,0,0,1,13.82,0a14.19,14.19,0,0,1,6.71,1.62,12.28,12.28,0,0,1,4.8,4.26L22.8,7.94a11,11,0,0,0-8.95-4.69,10,10,0,0,0-7.4,3,10.39,10.39,0,0,0-3,7.65,10,10,0,0,0,3,7.47,10.2,10.2,0,0,0,7.43,2.92,11,11,0,0,0,9.13-4.62l2.45,2.06a14.38,14.38,0,0,1-11.69,5.77A13.53,13.53,0,0,1,4,23.7Z"/><path class="cls-1" d="M65.92,27.13V.47h9.81a11.43,11.43,0,0,1,8.91,3.61c2.2,2.42,3.28,5.66,3.28,9.78s-1.12,7.32-3.35,9.7-5.3,3.57-9.2,3.57ZM69.23,24h6.24a8.1,8.1,0,0,0,6.6-2.85,11.14,11.14,0,0,0,2.38-7.36,10.84,10.84,0,0,0-2.38-7.25,8,8,0,0,0-6.57-2.85H69.23Z"/><path class="cls-1" d="M96.05,27.13V.47h16.34V3.64h-13V12h12v3.17h-12V24h13.06v3.17Z"/><path class="cls-1" d="M145.61,27.13V.47h9.81a11.43,11.43,0,0,1,8.91,3.61c2.2,2.42,3.28,5.66,3.28,9.78s-1.12,7.32-3.35,9.7-5.3,3.57-9.2,3.57ZM148.93,24h6.24a8.1,8.1,0,0,0,6.6-2.85,11.14,11.14,0,0,0,2.38-7.36,10.84,10.84,0,0,0-2.38-7.25,8,8,0,0,0-6.57-2.85h-6.28Z"/><path class="cls-1" d="M175.8.47h3.32V27.13H175.8Z"/><path class="cls-1" d="M214.22,27.13v-2l14.72-21.5h-14V.47h18.72v2L219.09,24H234v3.17Z"/><path class="cls-1" d="M54,4.08a13.68,13.68,0,0,0-19.48,0,13.48,13.48,0,0,0-4,9.88,13.37,13.37,0,0,0,13.64,13.6,13.5,13.5,0,0,0,9.85-4A13.3,13.3,0,0,0,58,13.82,13.27,13.27,0,0,0,54,4.08Z"/><polygon class="cls-1" points="198.02 0.54 194.81 0.54 201.13 16.85 194.22 16.85 194.21 16.87 189.72 16.87 185.54 27.13 189.22 27.13 192.03 20.02 202.28 20.02 205.09 27.13 208.78 27.13 198.02 0.54"/><path class="cls-1" d="M130.91,15.91a7.53,7.53,0,0,0,4.69-2.78,7.61,7.61,0,0,0,1.66-4.8,7.83,7.83,0,0,0-2.16-5.52,7,7,0,0,0-3.27-2l-1.33,3a4.29,4.29,0,0,1,3.34,4.41c0,2.63-1.8,4.69-5.56,4.69h-8.15V27.13h3.32v-11h3.75l7.14,11h4.15Z"/></svg>